@startuml
skinparam classAttributeIconSize 0
skinparam monochrome true
skinparam shadowing false

class Facade {
    - subsystem1: Subsystem1
    - subsystem2: Subsystem2
    - subsystem3: Subsystem3
    + operation()
}

class Subsystem1 {
    + operation1()
}

class Subsystem2 {
    + operation2()
}

class Subsystem3 {
    + operation3()
}

class Client

Client --> Facade
Facade --> Subsystem1
Facade --> Subsystem2
Facade --> Subsystem3
@enduml